<svg width="164" height="23" fill="none" xmlns="http://www.w3.org/2000/svg"><g clip-path="url('#clip0_0_308')"><mask id="mask0_0_308" style="mask-type:luminance" maskUnits="userSpaceOnUse" x="0" y="1" width="164" height="21"><path d="M.797 1.058h162.25V21.13H.797V1.058Z" fill="#ccc"/></mask><g mask="url('#mask0_0_308')"><path d="M6.697 10.214a.565.565 0 0 0-.963.104L.856 20.041a.58.58 0 0 0 .522.841H8.17a.564.564 0 0 0 .52-.321c1.466-3.019.578-7.607-1.993-10.347Zm3.576-8.845a12.8 12.8 0 0 0-.751 12.662l3.274 6.53a.583.583 0 0 0 .522.321h6.79a.585.585 0 0 0 .522-.841s-9.136-18.22-9.366-18.675a.55.55 0 0 0-.991.003Zm79.65 7.797c0 2.407 1.12 4.319 5.503 5.163 2.615.547 3.162.968 3.162 1.837 0 .844-.55 1.39-2.39 1.39a13.52 13.52 0 0 1-6.35-1.713v3.922c1.32.645 3.064 1.365 6.3 1.365 4.581 0 6.399-2.037 6.399-5.064l-12.623-6.9Zm12.624 6.9c0-2.854-1.519-4.195-5.801-5.113-2.365-.522-2.938-1.043-2.938-1.787 0-.943.847-1.34 2.415-1.34 1.892 0 3.76.57 5.527 1.364V5.442a12.525 12.525 0 0 0-5.403-1.117c-4.232 0-6.423 1.838-6.423 4.841m58.855-4.593v16.309h3.486V8.444l1.469 3.302 4.929 9.135h4.382V4.573h-3.485v10.525l-1.32-3.053-3.959-7.472h-5.502Zm-22.169 0h-3.809v16.309h3.809V4.574Zm-8.204 11.493c0-2.854-1.518-4.195-5.801-5.113-2.365-.522-2.937-1.043-2.937-1.787 0-.943.846-1.34 2.414-1.34 1.893 0 3.76.57 5.528 1.364V5.442a12.528 12.528 0 0 0-5.403-1.117c-4.233 0-6.423 1.837-6.423 4.84 0 2.408 1.12 4.32 5.502 5.164 2.614.547 3.162.968 3.162 1.837 0 .844-.549 1.39-2.391 1.39a13.519 13.519 0 0 1-6.348-1.713v3.922c1.32.645 3.062 1.365 6.299 1.365 4.581 0 6.398-2.037 6.398-5.064ZM60.334 4.573v16.309h7.83l1.232-3.525h-5.228V4.573h-3.834Zm-15.47 0v3.525h4.234v12.784h3.834V8.098h4.53V4.573H44.865Zm-5.56 0H34.28l-5.704 16.309h4.356l.809-2.747c1.99.583 4.109.583 6.1 0l.809 2.747h4.357l-5.703-16.31Zm-2.511 10.621a7.47 7.47 0 0 1-2.096-.3l2.096-7.118 2.096 7.12a7.463 7.463 0 0 1-2.096.298ZM81.662 4.573h-5.025l-5.703 16.309h4.357l.809-2.747c1.992.583 4.11.583 6.1 0l.81 2.747h4.356l-5.704-16.31ZM79.15 15.194c-.71 0-1.416-.101-2.097-.3l2.097-7.118 2.096 7.12a7.463 7.463 0 0 1-2.096.298Zm61.186-10.62h-5.024l-5.704 16.308h4.356l.809-2.747c1.992.583 4.109.583 6.101 0l.808 2.747h4.358l-5.704-16.308Zm-2.514 10.62c-.71 0-1.415-.1-2.096-.3l2.096-7.117 2.096 7.12a7.456 7.456 0 0 1-2.096.297Z" fill="#fff"/></g></g><defs><clipPath id="clip0_0_308"><path fill="#ccc" transform="translate(.594 .094)" d="M0 0h163v22H0z"/></clipPath></defs></svg>