<svg width="111" height="29" fill="#ccc" xmlns="http://www.w3.org/2000/svg"><g clip-path="url('#clip0_0_315')"><path d="M18.667.094H0l9.333 9.333h9.334V.094ZM0 18.76h18.667L9.333 9.427H0v9.334Zm0 0 9.333 9.333V18.76H0Zm37.333 2.754V6.388h9.23V9.33h-5.727v4.083h5.728v2.869h-5.728v5.232h-3.503Zm11.837 0V11.104h3.301v1.688c.246-.492.654-.925 1.224-1.297.57-.38 1.238-.57 2.004-.57.359 0 .675.06.95.18v3.006a5.707 5.707 0 0 0-.591-.116 3.02 3.02 0 0 0-.538-.042c-.936 0-1.677.263-2.226.79-.548.528-.823 1.432-.823 2.712v4.06H49.17Zm8.154-5.211c0-.78.123-1.505.369-2.173a5.217 5.217 0 0 1 1.044-1.72c.45-.485.974-.868 1.572-1.15a4.5 4.5 0 0 1 1.941-.421c.78 0 1.456.165 2.025.495.577.33 1.01.75 1.298 1.256v-1.488h3.302v10.412h-3.302v-1.466c-.26.478-.679.886-1.255 1.224-.577.337-1.266.506-2.068.506-.69 0-1.336-.14-1.94-.422a5.07 5.07 0 0 1-1.573-1.15 5.338 5.338 0 0 1-1.044-1.73 6.234 6.234 0 0 1-.369-2.173Zm3.28 0c0 .359.06.703.18 1.034a2.8 2.8 0 0 0 .506.844c.218.232.478.422.78.57.303.14.64.21 1.014.21.372 0 .71-.07 1.012-.21.31-.148.57-.338.78-.57.219-.24.388-.52.507-.844.127-.324.19-.668.19-1.034 0-.36-.063-.696-.19-1.013a2.701 2.701 0 0 0-.506-.844 2.251 2.251 0 0 0-.77-.58 2.398 2.398 0 0 0-1.023-.21c-.373 0-.71.07-1.013.21a2.362 2.362 0 0 0-.78.58 3 3 0 0 0-.507.844c-.12.317-.18.654-.18 1.013Zm11.076 5.21v-10.41h3.197v1.509c.232-.464.595-.876 1.087-1.234.5-.36 1.167-.538 2.004-.538.78 0 1.428.172 1.941.516.52.338.897.792 1.129 1.36.127-.245.288-.48.485-.705.2-.235.435-.438.696-.602.275-.175.595-.313.96-.411a4.57 4.57 0 0 1 1.245-.158c.717 0 1.308.123 1.772.369a2.83 2.83 0 0 1 1.087.98c.26.402.436.859.527 1.372.092.507.138 1.02.138 1.54v6.414h-3.176v-5.612c0-.703-.126-1.252-.38-1.645-.246-.401-.65-.602-1.213-.602-.246 0-.478.042-.696.127-.226.09-.422.239-.57.432-.154.197-.274.468-.358.813-.085.337-.127.756-.127 1.255v5.232h-3.196v-5.643c0-.704-.123-1.25-.37-1.636-.245-.386-.65-.58-1.212-.58-.507 0-.929.194-1.266.58-.338.387-.507 1.094-.507 2.12v5.16h-3.196l-.001-.002Zm18.304-5.21c0-.767.116-1.48.348-2.141a4.915 4.915 0 0 1 1.055-1.73 5.07 5.07 0 0 1 1.719-1.182c.682-.288 1.463-.432 2.342-.432.837 0 1.59.13 2.257.39a4.942 4.942 0 0 1 1.699 1.076c.47.45.833.988 1.086 1.614.253.626.38 1.3.38 2.025 0 .204-.007.38-.021.528-.023.218-.051.436-.084.654h-7.459c0 .316.04.615.116.896.085.282.211.528.38.739.176.21.408.376.696.496.289.12.64.179 1.055.179.591 0 1.034-.113 1.33-.338.295-.232.499-.513.611-.844h3.249a3.69 3.69 0 0 1-.538 1.382 4.165 4.165 0 0 1-1.044 1.13c-.429.323-.942.58-1.54.77-.598.19-1.273.284-2.025.284-.908 0-1.713-.14-2.416-.422a4.99 4.99 0 0 1-1.762-1.17 5.08 5.08 0 0 1-1.076-1.752 6.34 6.34 0 0 1-.358-2.152Zm3.322-1.097h4.326c0-.633-.201-1.132-.602-1.498-.394-.373-.914-.56-1.561-.56-.619 0-1.136.18-1.55.539-.409.35-.613.858-.613 1.519Zm9.811 6.308V11.104h3.302v1.688c.246-.492.654-.925 1.223-1.297.57-.38 1.238-.57 2.005-.57.358 0 .675.06.949.18v3.006a5.686 5.686 0 0 0-.591-.116 3.015 3.015 0 0 0-.538-.042c-.935 0-1.677.263-2.225.79-.549.528-.823 1.432-.823 2.712v4.06h-3.302Z"/></g><defs><clipPath id="clip0_0_315"><path transform="translate(0 .094)" d="M0 0h111v28H0z"/></clipPath></defs></svg>