<svg width="94" height="25" fill="none" xmlns="http://www.w3.org/2000/svg"><g clip-path="url('#clip0_0_298')"><path d="M18.894 10.366h-7.73c-.2 0-.361.156-.361.349v3.646c0 .192.16.349.36.349h3.016v4.53s-.677.223-2.55.223c-2.208 0-5.293-.78-5.293-7.324 0-6.546 3.212-7.408 6.229-7.408 2.61 0 3.736.444 4.45.658.227.066.435-.15.435-.342l.862-3.523a.318.318 0 0 0-.138-.272c-.29-.2-2.065-1.158-6.544-1.158-5.16 0-10.456 2.118-10.456 12.3 0 10.183 6.062 11.7 11.17 11.7 4.228 0 6.794-1.743 6.794-1.743.105-.057.117-.2.117-.264V10.715a.355.355 0 0 0-.361-.35Zm39.842-9.052c0-.194-.16-.35-.36-.35h-4.352a.355.355 0 0 0-.36.35v8.115H46.88V1.314c0-.194-.16-.35-.36-.35h-4.352a.355.355 0 0 0-.36.35v21.972c0 .195.162.352.36.352h4.353a.355.355 0 0 0 .359-.352v-9.398h6.785l-.012 9.398c0 .195.16.352.36.352h4.364c.2 0 .358-.157.36-.352V1.314h-.002ZM27.109 4.197c0-1.511-1.258-2.733-2.808-2.733-1.55 0-2.806 1.222-2.806 2.733 0 1.51 1.258 2.736 2.806 2.736 1.55 0 2.808-1.225 2.808-2.736Zm-.312 14.454V8.509a.355.355 0 0 0-.36-.35h-4.34c-.2 0-.376.198-.376.39v14.53c0 .429.275.556.632.556h3.91c.429 0 .534-.203.534-.561V18.65ZM75.279 8.19h-4.32a.356.356 0 0 0-.36.352v10.774s-1.096.775-2.654.775c-1.557 0-1.97-.682-1.97-2.153V8.543a.355.355 0 0 0-.36-.35H61.23a.356.356 0 0 0-.36.35V18.65c0 4.37 2.526 5.44 5.999 5.44 2.85 0 5.146-1.52 5.146-1.52s.11.8.16.896a.38.38 0 0 0 .317.19l2.789-.012c.197 0 .36-.157.36-.35l-.002-14.75a.355.355 0 0 0-.36-.352ZM85.38 20.08c-1.498-.045-2.514-.7-2.514-.7v-6.96s1.002-.592 2.233-.698c1.555-.134 3.054.32 3.054 3.9 0 3.773-.678 4.518-2.773 4.458Zm1.704-12.38c-2.453 0-4.122 1.055-4.122 1.055v-7.44a.355.355 0 0 0-.36-.35h-4.365a.355.355 0 0 0-.36.35v21.972c0 .195.163.352.36.352h3.03c.136 0 .24-.068.315-.186.076-.118.185-1.013.185-1.013s1.785 1.63 5.163 1.63c3.968 0 6.243-1.94 6.243-8.712 0-6.773-3.633-7.658-6.09-7.658Zm-47.777.459h-3.266l-.005-4.162c0-.158-.083-.236-.273-.236h-4.45c-.172 0-.265.073-.265.234v4.3s-2.23.519-2.38.56a.352.352 0 0 0-.261.335v2.703c0 .194.16.35.36.35h2.28v6.5c0 4.83 3.512 5.305 5.88 5.305 1.084 0 2.379-.336 2.593-.412.13-.046.204-.175.204-.315l.004-2.973c0-.193-.17-.35-.361-.35-.19 0-.678.074-1.178.074-1.604 0-2.148-.72-2.148-1.65v-6.177h3.266c.199 0 .36-.157.36-.351V8.507a.355.355 0 0 0-.36-.35Z" fill="#ccc"/></g><defs><clipPath id="clip0_0_298"><path fill="#ccc" transform="translate(.781 .094)" d="M0 0h93v24H0z"/></clipPath></defs></svg>