<svg width="40" height="40" fill="none" xmlns="http://www.w3.org/2000/svg"><circle cx="20" cy="20" r="20" fill="#F1F1F1"/><path d="M24.375 11.25a4.388 4.388 0 0 1 4.375 4.375v8.75a4.388 4.388 0 0 1-4.375 4.375h-8.75a4.388 4.388 0 0 1-4.375-4.375v-8.75a4.388 4.388 0 0 1 4.375-4.375h8.75Zm0-1.75h-8.75c-3.369 0-6.125 2.756-6.125 6.125v8.75c0 3.369 2.756 6.125 6.125 6.125h8.75c3.369 0 6.125-2.756 6.125-6.125v-8.75c0-3.369-2.756-6.125-6.125-6.125Z" fill="#06030E"/><path d="M25.687 15.625a1.312 1.312 0 1 1 0-2.625 1.312 1.312 0 0 1 0 2.625ZM20 16.5a3.5 3.5 0 1 1 0 7 3.5 3.5 0 0 1 0-7Zm0-1.75a5.25 5.25 0 1 0 0 10.5 5.25 5.25 0 0 0 0-10.5Z" fill="#06030E"/></svg>