<svg width="162" height="25" fill="none" xmlns="http://www.w3.org/2000/svg"><g clip-path="url('#clip0_0_295')"><path d="M10.007 18.819v-2.275H3.045V5.369H.375v13.45h9.632Zm6.686-.411c.587-.42 1.04-1.001 1.306-1.672v2.083h2.551v-6.495a3.266 3.266 0 0 0-.548-1.854c-.372-.55-.9-.984-1.52-1.25a5.732 5.732 0 0 0-2.365-.45 8.207 8.207 0 0 0-1.443.123 7.404 7.404 0 0 0-2.453.909l.077 2.31a8.76 8.76 0 0 1 1.84-.906 6.086 6.086 0 0 1 1.998-.315c.492-.03.979.113 1.372.4a1.284 1.284 0 0 1 .494 1.033v.668h-2.264c-1.359 0-2.433.277-3.223.832a2.72 2.72 0 0 0-.898 1.003c-.207.4-.307.847-.29 1.297-.007.519.13 1.03.395 1.48a2.77 2.77 0 0 0 1.144 1.037 3.692 3.692 0 0 0 1.712.382 3.56 3.56 0 0 0 2.115-.615Zm-2.304-1.672a1.04 1.04 0 0 1-.327-.388 1 1 0 0 1-.099-.492 1.122 1.122 0 0 1 .15-.594c.104-.181.257-.332.443-.436a3.44 3.44 0 0 1 1.761-.363h1.646v.38c-.006.343-.1.678-.274.976-.206.358-.5.657-.853.87a2.39 2.39 0 0 1-1.309.362 1.911 1.911 0 0 1-1.138-.315Zm14.29 1.64a4.46 4.46 0 0 0 1.325-2.04v2.483h2.593V9.076h-2.593v4.547a4.59 4.59 0 0 1-.315 1.748c-.185.48-.505.898-.92 1.203a2.35 2.35 0 0 1-1.396.43 1.8 1.8 0 0 1-.72-.104 1.75 1.75 0 0 1-.613-.38 1.92 1.92 0 0 1-.466-1.395v-6.05h-2.59v6.095c0 1.26.31 2.233.93 2.915.312.345.702.618 1.139.798.437.18.91.262 1.385.24a3.366 3.366 0 0 0 2.241-.747Zm9.328.448v-4.552a4.58 4.58 0 0 1 .316-1.75c.184-.478.5-.895.91-1.202.4-.287.887-.438 1.386-.43.244-.015.49.02.72.102.229.082.438.21.613.376.336.39.503.888.466 1.394v6.057h2.612v-6.095c0-1.262-.313-2.233-.94-2.915a3.184 3.184 0 0 0-1.14-.79 3.285 3.285 0 0 0-1.382-.24 3.33 3.33 0 0 0-2.244.752 4.535 4.535 0 0 0-1.317 2.035v-2.49h-2.59v9.742l2.59.006Zm15.734.21c.319-.047.633-.117.94-.21.291-.09.55-.178.824-.265l.019-2.37a6.03 6.03 0 0 1-1.317.46 6.28 6.28 0 0 1-1.394.153 3.698 3.698 0 0 1-1.75-.373 2.394 2.394 0 0 1-1.04-1.023 3.325 3.325 0 0 1 0-2.915c.23-.437.593-.797 1.04-1.03a3.54 3.54 0 0 1 1.712-.382 6.03 6.03 0 0 1 1.454.172c.446.112.88.266 1.295.459l-.02-2.427a7.059 7.059 0 0 0-.85-.265 8.181 8.181 0 0 0-1.978-.24 6.287 6.287 0 0 0-2.998.68 4.863 4.863 0 0 0-1.967 1.854 5.203 5.203 0 0 0-.694 2.674 5.054 5.054 0 0 0 .702 2.65c.473.78 1.16 1.41 1.978 1.814a6.46 6.46 0 0 0 2.957.65c.36.002.72-.022 1.076-.072l.01.005h.001Zm6.677-.21v-4.552a4.58 4.58 0 0 1 .316-1.75c.182-.476.5-.893.919-1.202.4-.285.88-.435 1.372-.43a1.802 1.802 0 0 1 1.352.478c.336.39.503.888.466 1.394v6.057h2.59v-6.095c0-1.262-.31-2.233-.93-2.915a3.154 3.154 0 0 0-1.134-.79 3.254 3.254 0 0 0-1.376-.24 3.366 3.366 0 0 0-2.255.752 4.486 4.486 0 0 0-1.325 2.035V5.369h-2.552v13.45l2.557.005Zm15.35 0a8.025 8.025 0 0 0 3.778-.821 5.579 5.579 0 0 0 2.373-2.332c.562-1.098.84-2.32.809-3.553a7.464 7.464 0 0 0-.81-3.561 5.62 5.62 0 0 0-2.372-2.35 7.96 7.96 0 0 0-3.778-.832h-5.353v13.444l5.353.005Zm-2.693-2.28v-8.9h2.65c1.334 0 2.38.392 3.136 1.176.758.784 1.137 1.882 1.139 3.293 0 1.414-.38 2.506-1.139 3.278-.758.772-1.804 1.157-3.135 1.155h-2.65l-.001-.002Zm16.44 1.855a3.78 3.78 0 0 0 1.305-1.672v2.083h2.557v-6.486a3.262 3.262 0 0 0-.535-1.855 3.515 3.515 0 0 0-1.534-1.25 5.73 5.73 0 0 0-2.362-.45 8.23 8.23 0 0 0-1.445.123 7.397 7.397 0 0 0-2.453.91l.08 2.31a8.71 8.71 0 0 1 1.84-.907 6.07 6.07 0 0 1 1.998-.315c.492-.03.979.112 1.371.4a1.3 1.3 0 0 1 .373.46c.086.18.129.376.124.573v.668h-2.255c-1.372 0-2.434.265-3.227.832a2.71 2.71 0 0 0-.896 1.004c-.207.4-.306.846-.289 1.296-.007.519.13 1.03.395 1.48.268.443.661.803 1.133 1.037.53.263 1.118.394 1.71.382.76.026 1.51-.19 2.131-.615l-.021-.008Zm-2.305-1.672a1.03 1.03 0 0 1-.321-.386.992.992 0 0 1-.096-.486 1.122 1.122 0 0 1 .15-.594c.104-.181.257-.332.442-.436a3.436 3.436 0 0 1 1.762-.363h1.646v.38a2.032 2.032 0 0 1-.275.976 2.423 2.423 0 0 1-.85.87c-.39.244-.848.37-1.314.362-.403.018-.8-.093-1.136-.315l-.008-.008Zm11.38 2.09v-4.151c0-1.081.236-1.908.71-2.472.23-.28.524-.501.855-.647.335-.148.7-.218 1.066-.204.361-.003.721.048 1.067.15v-2.39a2.96 2.96 0 0 0-.505-.103 4.299 4.299 0 0 0-.549-.03 2.288 2.288 0 0 0-.883.17c-.279.114-.531.28-.74.494-.49.5-.84 1.11-1.021 1.775V9.076h-2.593v9.743h2.593v-.002Zm7.931 0v-3.152l.93-.86 3.018 4.013h3.045l-4.31-5.694 4.231-4.05h-3.243l-3.679 3.472V5.394h-2.552V18.82h2.56v-.003Zm11.177 0V5.37h-2.574v13.45h2.574v-.003Zm3.937 3.63a4.362 4.362 0 0 0 2.332-.564c.605-.376 1.106-1.03 1.503-1.958l4.639-10.85h-2.65l-2.743 6.82-2.774-6.82h-2.65l4.153 9.724-.219.496c-.101.29-.293.544-.549.726a1.883 1.883 0 0 1-1.037.23h-2.153v2.197l2.148-.001Zm27.463 1.647a.564.564 0 0 1-.291-.08.525.525 0 0 1-.257-.49.498.498 0 0 1 .103-.257l5.838-7.763-10.222 4.033a.563.563 0 0 1-.547-.062.53.53 0 0 1-.196-.275.49.49 0 0 1 .01-.327.513.513 0 0 1 .215-.253l8.99-5.127-15.83-.88a.551.551 0 0 1-.325-.18.52.52 0 0 1 0-.682.552.552 0 0 1 .325-.182l15.838-.877-8.993-5.127a.507.507 0 0 1-.029-.854.537.537 0 0 1 .545-.06l10.225 4.038-5.838-7.76a.487.487 0 0 1-.05-.53.544.544 0 0 1 .873-.146l11.635 11.234a.837.837 0 0 1 0 1.206L149.476 23.94a.538.538 0 0 1-.378.154Z" fill="#ccc"/></g><defs><clipPath id="clip0_0_295"><path fill="#ccc" transform="translate(.375 .094)" d="M0 0h161v24H0z"/></clipPath></defs></svg>