<svg width="40" height="40" fill="none" xmlns="http://www.w3.org/2000/svg"><circle cx="20" cy="20" r="20" fill="#F1F1F1"/><path d="M28.82 9.5H11.294c-.957 0-1.794.69-1.794 1.636V28.7c0 .951.837 1.799 1.794 1.799h17.521c.963 0 1.685-.854 1.685-1.8V11.137c.006-.947-.722-1.636-1.68-1.636ZM16.01 27.005H13V17.65h3.008v9.354Zm-1.4-10.777h-.022c-.963 0-1.586-.716-1.586-1.614 0-.913.64-1.613 1.624-1.613.984 0 1.586.695 1.608 1.614 0 .897-.624 1.613-1.625 1.613Zm12.395 10.776h-3.009V21.89c0-1.225-.438-2.063-1.526-2.063-.832 0-1.324.563-1.543 1.111-.082.197-.104.465-.104.739v5.328h-3.008V17.65h3.008v1.301c.438-.623 1.122-1.52 2.713-1.52 1.975 0 3.469 1.301 3.469 4.108v5.465Z" fill="#06030E"/></svg>