<svg width="101" height="31" fill="none" xmlns="http://www.w3.org/2000/svg"><g clip-path="url('#clip0_0_301')"><mask id="mask0_0_301" style="mask-type:luminance" maskUnits="userSpaceOnUse" x="0" y="0" width="100" height="30"><path d="M.247.953h99v28.28h-99V.954Z" fill="#ccc"/></mask><g mask="url('#mask0_0_301')"><path d="M34.495 16.68c-.842-.465-1.286-.842-1.286-1.375 0-.687.6-1.11 1.552-1.11 1.11 0 2.085.467 2.085.467l.778-2.373s-.71-.555-2.819-.555c-2.927 0-4.968 1.686-4.968 4.037 0 1.33.954 2.35 2.219 3.083 1.02.577 1.375.999 1.375 1.598 0 .643-.51 1.153-1.464 1.153-1.42 0-2.75-.732-2.75-.732l-.822 2.374s1.242.82 3.306.82c3.017 0 5.167-1.486 5.167-4.148.045-1.464-1.064-2.484-2.373-3.238Zm12.023-4.99c-1.486 0-2.64.71-3.549 1.774l-.044-.022 1.287-6.743h-3.373l-3.26 17.147h3.35l1.108-5.856c.444-2.22 1.575-3.572 2.64-3.572.755 0 1.042.51 1.042 1.242 0 .466-.044 1.02-.154 1.487l-1.264 6.72h3.35l1.307-6.92c.151-.723.233-1.458.245-2.196.043-1.93-.934-3.061-2.686-3.061Zm10.316-.001c-4.038 0-6.722 3.638-6.722 7.698 0 2.595 1.597 4.702 4.614 4.702 3.97 0 6.633-3.55 6.633-7.697.021-2.418-1.376-4.703-4.526-4.703Zm-1.643 9.805c-1.153 0-1.619-.976-1.619-2.196 0-1.93.998-5.058 2.817-5.058 1.198 0 1.575 1.02 1.575 2.019 0 2.085-.997 5.235-2.773 5.235Zm14.772-9.805c-2.261 0-3.548 1.997-3.548 1.997h-.044l.2-1.797h-2.974a82.195 82.195 0 0 1-.688 4.459l-2.328 12.244h3.35l.93-4.968h.067s.689.443 1.975.443c3.948 0 6.521-4.037 6.521-8.118 0-2.24-.999-4.26-3.46-4.26ZM66.77 21.56c-.865 0-1.375-.488-1.375-.488l.555-3.128c.4-2.085 1.487-3.483 2.64-3.483 1.02 0 1.33.954 1.33 1.84 0 2.153-1.287 5.259-3.15 5.259ZM78.218 6.876c-1.064 0-1.93.843-1.93 1.952 0 .998.621 1.686 1.575 1.686h.046c1.041 0 1.951-.71 1.974-1.952.021-.998-.644-1.686-1.665-1.686Zm-4.703 16.969h3.373l2.284-11.89h-3.394l-2.263 11.89ZM87.69 11.934h-2.33l.11-.555c.2-1.154.867-2.174 1.998-2.174.6 0 1.064.177 1.064.177l.666-2.617s-.576-.288-1.82-.288c-1.197 0-2.373.332-3.281 1.109-1.154.976-1.687 2.373-1.953 3.793l-.09.554h-1.552l-.488 2.53h1.553l-1.775 9.382h3.35l1.774-9.383h2.307l.467-2.53v.002Zm8.076.022s-2.109 5.279-3.04 8.163h-.044c-.066-.932-.82-8.163-.82-8.163h-3.528l2.019 10.913c.044.244.022.4-.067.555a5.82 5.82 0 0 1-1.82 2.019c-.62.465-1.33.754-1.885.953l.933 2.84c.688-.156 2.084-.71 3.282-1.82 1.53-1.441 2.95-3.637 4.392-6.654l4.105-8.806h-3.528ZM16.84 4.236s-.31.088-.822.244a6.51 6.51 0 0 0-.4-.976c-.575-1.11-1.44-1.71-2.46-1.71-.066 0-.133 0-.221.023-.023-.045-.067-.067-.09-.111-.444-.488-1.02-.71-1.707-.688-1.332.044-2.663.998-3.728 2.706-.754 1.198-1.33 2.707-1.486 3.882-1.53.466-2.595.799-2.618.82-.776.245-.798.267-.887.999C2.354 9.98.313 25.597.313 25.597l16.77 2.906V4.213c-.133 0-.2.023-.243.023Zm-3.883 1.197c-.888.267-1.864.577-2.817.865.266-1.042.798-2.085 1.42-2.772.243-.244.576-.533.954-.71.377.798.466 1.885.444 2.617Zm-1.82-3.504c.311 0 .579.066.8.2-.355.177-.71.465-1.042.798-.843.91-1.487 2.329-1.754 3.682-.798.244-1.597.488-2.329.71.488-2.13 2.285-5.346 4.327-5.39h-.002Zm-2.572 12.2c.088 1.42 3.838 1.73 4.06 5.08.155 2.64-1.398 4.436-3.639 4.57-2.706.177-4.192-1.42-4.192-1.42l.576-2.44s1.487 1.13 2.684 1.042c.777-.044 1.065-.688 1.043-1.131-.11-1.864-3.172-1.753-3.372-4.814-.177-2.573 1.51-5.168 5.236-5.412 1.441-.09 2.173.266 2.173.266l-.843 3.194s-.954-.444-2.085-.355c-1.64.11-1.664 1.154-1.64 1.42Zm5.28-8.962c0-.665-.09-1.62-.4-2.418 1.02.2 1.51 1.33 1.73 2.019-.399.11-.843.243-1.33.399Zm3.748 23.292 6.965-1.73S21.564 6.475 21.54 6.342a.258.258 0 0 0-.244-.222c-.11 0-2.064-.044-2.064-.044s-1.197-1.154-1.64-1.597v23.98Z" fill="#ccc"/></g></g><defs><clipPath id="clip0_0_301"><path fill="#ccc" transform="translate(.188 .094)" d="M0 0h100v30H0z"/></clipPath></defs></svg>