<svg width="132" height="25" fill="none" xmlns="http://www.w3.org/2000/svg"><g clip-path="url('#clip0_0_281')"><mask id="mask0_0_281" style="mask-type:luminance" maskUnits="userSpaceOnUse" x="1" y="0" width="131" height="25"><path d="M1.429.094h130v24h-130v-24Z" fill="#ccc"/></mask><g mask="url('#mask0_0_281')"><path opacity=".2" d="M5.082 6.668a2.9 2.9 0 1 0 0-5.801 2.9 2.9 0 0 0 0 5.8Z" fill="#ccc"/><path d="M5.082 15.317a2.9 2.9 0 1 0 0-5.802 2.9 2.9 0 0 0 0 5.802Z" fill="#fff"/><path opacity=".2" d="M5.082 24.127a2.9 2.9 0 1 0 0-5.801 2.9 2.9 0 0 0 0 5.8Z" fill="#ccc"/><path d="M13.784 15.317a2.9 2.9 0 1 0 0-5.802 2.9 2.9 0 0 0 0 5.802Zm0 8.81a2.9 2.9 0 1 0 0-5.801 2.9 2.9 0 0 0 0 5.8Z" fill="#fff"/><path opacity=".2" d="M13.783 6.668a2.9 2.9 0 1 0 0-5.802 2.9 2.9 0 0 0 0 5.802Zm8.595 0a2.9 2.9 0 1 0 0-5.802 2.9 2.9 0 0 0 0 5.802Z" fill="#fff"/><path d="M22.379 15.317a2.9 2.9 0 1 0 0-5.801 2.9 2.9 0 0 0 0 5.8Z" fill="#fff"/><path opacity=".2" d="M22.38 24.127a2.9 2.9 0 1 0 0-5.8 2.9 2.9 0 0 0 0 5.8Z" fill="#ccc"/><path d="M42.699 21.87c.82 0 1.487-.077 2.28-.23v-2.972c-.486.18-1.024.23-1.536.23-1.255 0-1.716-.614-1.716-1.793V11.06h3.253V8.089h-3.254V3.683H38.14v4.406h-2.33v2.97h2.33v6.379c0 2.818 1.485 4.432 4.559 4.432Zm8.137 0c1.92 0 3.202-.64 3.843-1.64.05.436.204 1.025.41 1.384h3.227c-.18-.615-.308-1.588-.308-2.23v-7.017c0-2.895-2.074-4.534-5.584-4.534-2.664 0-4.738.999-5.891 2.459l2.05 2.023c.92-1.024 2.1-1.562 3.534-1.562 1.742 0 2.51.589 2.51 1.46 0 .743-.512 1.255-3.28 1.255-2.662 0-5.352 1.102-5.352 4.175 0 2.844 2.05 4.227 4.84 4.227Zm.717-2.715c-1.383 0-2.023-.59-2.023-1.64 0-.922.768-1.537 2.05-1.537 2.048 0 2.612-.128 3.047-.563v1.1c0 1.46-1.23 2.64-3.074 2.64Zm8.786-12.782h3.74V3.017h-3.74v3.357-.001Zm.077 15.24h3.587V8.09h-3.587v13.524-.001Zm6.199 0H70.2V3.428h-3.586v18.187Zm11.04.257c3.945 0 5.968-2.075 5.968-4.252 0-1.973-1-3.433-4.277-4.022-2.306-.41-3.74-.922-3.74-1.716 0-.692.82-1.178 2.203-1.178 1.23 0 2.254.41 3.022 1.306l2.28-1.921c-1.153-1.435-3.048-2.254-5.302-2.254-3.458 0-5.61 1.844-5.61 4.098 0 2.46 2.254 3.56 4.688 3.996 2.023.359 3.15.743 3.15 1.614 0 .743-.794 1.358-2.305 1.358-1.486 0-2.64-.692-3.177-1.717l-3.022 1.435c.743 1.844 3.279 3.253 6.122 3.253Zm13.986 0c2.562 0 4.406-1.025 5.79-3.33l-2.87-1.46c-.538 1.076-1.41 1.819-2.92 1.819-2.28 0-3.51-1.845-3.51-4.073 0-2.23 1.307-4.022 3.51-4.022 1.383 0 2.306.743 2.843 1.87l2.895-1.537c-.974-2.126-2.895-3.304-5.738-3.304-4.687 0-7.095 3.432-7.095 6.993 0 3.868 2.92 7.044 7.095 7.044Zm11.501 0c1.921 0 3.202-.64 3.843-1.64.051.436.205 1.025.409 1.384h3.228c-.179-.615-.307-1.588-.307-2.23v-7.017c0-2.895-2.075-4.534-5.584-4.534-2.664 0-4.74.999-5.892 2.459l2.05 2.023c.921-1.024 2.1-1.562 3.534-1.562 1.742 0 2.51.589 2.51 1.46 0 .743-.512 1.255-3.278 1.255-2.664 0-5.354 1.102-5.354 4.175 0 2.844 2.05 4.227 4.841 4.227Zm.718-2.715c-1.384 0-2.024-.59-2.024-1.64 0-.922.768-1.537 2.049-1.537 2.049 0 2.613-.128 3.048-.563v1.1c0 1.46-1.229 2.64-3.073 2.64Zm8.562 2.459h3.586V3.427h-3.586v18.187Zm12.193.256c2.639 0 4.765-1.05 5.942-2.92l-2.715-1.742c-.716 1.127-1.665 1.742-3.227 1.742-1.767 0-3.048-.974-3.381-2.87h10.195v-1.254c0-3.56-2.178-6.993-6.84-6.993-4.43 0-6.839 3.458-6.839 7.018 0 5.072 3.817 7.019 6.865 7.019Zm-3.253-8.607c.564-1.716 1.741-2.51 3.305-2.51 1.767 0 2.842 1.05 3.201 2.51h-6.506Z" fill="#ccc"/></g></g><defs><clipPath id="clip0_0_281"><path fill="#ccc" transform="translate(.969 .094)" d="M0 0h131v24H0z"/></clipPath></defs></svg>