<svg width="40" height="40" fill="none" xmlns="http://www.w3.org/2000/svg"><circle cx="20" cy="20" r="20" fill="#F1F1F1"/><path d="M31.25 13.133a9.458 9.458 0 0 1-2.65.717 4.57 4.57 0 0 0 2.03-2.512 9.27 9.27 0 0 1-2.932 1.101A4.647 4.647 0 0 0 24.327 11c-2.55 0-4.615 2.034-4.615 4.542a4.37 4.37 0 0 0 .119 1.036 13.156 13.156 0 0 1-9.516-4.748 4.485 4.485 0 0 0-.627 2.283c0 1.575.821 2.967 2.062 3.782a4.57 4.57 0 0 1-2.1-.567v.056c0 2.203 1.595 4.036 3.704 4.453-.397.106-.805.16-1.216.16-.291 0-.582-.028-.867-.084.586 1.804 2.293 3.117 4.314 3.154a9.356 9.356 0 0 1-6.835 1.88A13.063 13.063 0 0 0 15.816 29c8.501 0 13.146-6.923 13.146-12.928 0-.197-.006-.394-.015-.586a9.303 9.303 0 0 0 2.303-2.353Z" fill="#06030E"/></svg>