<svg width="24" height="25" viewBox="0 0 24 25" fill="none" xmlns="http://www.w3.org/2000/svg">
<path d="M8.625 6.10938H7.125C6.72718 6.10938 6.34564 6.26741 6.06434 6.54872C5.78304 6.83002 5.625 7.21155 5.625 7.60938V9.10938M8.625 6.10938V3.10938M8.625 6.10938H15.375M5.625 9.10938V15.8594M5.625 9.10938H2.625M15.375 6.10938H16.875C17.2728 6.10938 17.6544 6.26741 17.9357 6.54872C18.217 6.83002 18.375 7.21155 18.375 7.60938V9.10938M15.375 6.10938V3.10938M18.375 9.10938H21.375M18.375 9.10938V15.8594M8.625 21.8594V18.8594M15.375 21.8594V18.8594M18.375 15.8594V17.3594C18.375 17.7572 18.217 18.1387 17.9357 18.42C17.6544 18.7013 17.2728 18.8594 16.875 18.8594H7.125C6.72718 18.8594 6.34564 18.7013 6.06434 18.42C5.78304 18.1387 5.625 17.7572 5.625 17.3594V15.8594M18.375 15.8594H21.375M5.625 15.8594H2.625" stroke="#56C2FF" stroke-width="1.5" stroke-linecap="round" stroke-linejoin="round"/>
</svg>
